HIERARCHY
ROOT joint_Root
{
  OFFSET 0.0 0.0 0.0
  CHANNELS 3 Zrotation Xrotation Yrotation
  JOINT Hips
  {
    OFFSET 0.0 1.12766 -0.0
    CHANNELS 6 Xposition Yposition Zposition Zrotation Xrotation Yrotation
    JOINT Spine
    {
      OFFSET -0.0 0.18883 0.0
      CHANNELS 3 Zrotation Xrotation Yrotation
      JOINT Chest
      {
        OFFSET -0.0 0.10792 0.0
        CHANNELS 3 Zrotation Xrotation Yrotation
        JOINT Neck
        {
          OFFSET 0.0 0.19651 0.00225
          CHANNELS 3 Zrotation Xrotation Yrotation
          JOINT Head
          {
            OFFSET -0.0 0.07748 0.0
            CHANNELS 3 Zrotation Xrotation Yrotation
            End Site
            {
              OFFSET 0.0 0.012 0.0
            }
          }
        }
        JOINT Shoulder_L
        {
          OFFSET 0.05976 0.15595 -0.00113
          CHANNELS 3 Zrotation Xrotation Yrotation
          JOINT UpperArm_L
          {
            OFFSET 0.06418 0.0 0.0
            CHANNELS 3 Zrotation Xrotation Yrotation
            JOINT LowerArm_L
            {
              OFFSET 0.0 -0.29194 0.0
              CHANNELS 3 Zrotation Xrotation Yrotation
              JOINT Hand_L
              {
                OFFSET 0.0 -0.2675 0.0
                CHANNELS 3 Zrotation Xrotation Yrotation
                End Site
                {
                  OFFSET 0.0 -0.012 0.0
                }
              }
            }
          }
        }
        JOINT Shoulder_R
        {
          OFFSET -0.05976 0.15596 -0.00113
          CHANNELS 3 Zrotation Xrotation Yrotation
          JOINT UpperArm_R
          {
            OFFSET -0.06418 0.0 0.0
            CHANNELS 3 Zrotation Xrotation Yrotation
            JOINT LowerArm_R
            {
              OFFSET -0.0 -0.29195 0.0
              CHANNELS 3 Zrotation Xrotation Yrotation
              JOINT Hand_R
              {
                OFFSET 0.0 -0.2675 0.0
                CHANNELS 3 Zrotation Xrotation Yrotation
                End Site
                {
                  OFFSET 0.0 -0.012 0.0
                }
              }
            }
          }
        }
      }
    }
    JOINT UpperLeg_L
    {
      OFFSET 0.07763 -0.02631 0.0
      CHANNELS 3 Zrotation Xrotation Yrotation
      JOINT LowerLeg_L
      {
        OFFSET 0.0 -0.46897 0.0
        CHANNELS 3 Zrotation Xrotation Yrotation
        JOINT Foot_L
        {
          OFFSET 0.0 -0.49182 0.0
          CHANNELS 3 Zrotation Xrotation Yrotation
          JOINT Toes_L
          {
            OFFSET 0.0 -0.14105 0.0
            CHANNELS 3 Zrotation Xrotation Yrotation
            End Site
            {
              OFFSET 0.0 -0.012 0.0
            }
          }
        }
      }
    }
    JOINT UpperLeg_R
    {
      OFFSET -0.07763 -0.02631 0.0
      CHANNELS 3 Zrotation Xrotation Yrotation
      JOINT LowerLeg_R
      {
        OFFSET 0.0 -0.46897 -0.0
        CHANNELS 3 Zrotation Xrotation Yrotation
        JOINT Foot_R
        {
          OFFSET -0.0 -0.49182 0.0
          CHANNELS 3 Zrotation Xrotation Yrotation
          JOINT Toes_R
          {
            OFFSET -0.0 -0.14105 0.0
            CHANNELS 3 Zrotation Xrotation Yrotation
            End Site
            {
              OFFSET 0.0 -0.012 0.0
            }
          }
        }
      }
    }
  }
}
MOTION
Frames: 10
Frame Time: 0.03333333333333333
0.0 -1.82938 0.0 -0.02057 1.23865 -4.84841 -3.54263 2.9588 1.75623 0.86119 -0.59039 1.44852 1.76937 -1.81438 2.90686 -1.636 -5.9424 -2.32117 -0.48127 4.73003 -6.30674 -1.66071 0.27345 -2.00467 14.41465 14.11708 24.91945 0.0 -14.43313 -6.96179 17.0078 0.91822 -5.26974 4.44759 -0.14001 4.84218 -20.82477 7.92881 -13.04772 -0.00023 -19.29867 7.58161 -21.62262 -4.89786 5.47784 1.73515 -23.70827 -3.0885 -0.02332 72.36651 -0.40703 13.00536 -41.96027 11.65066 0.61847 -21.37423 0.54433 10.20454 -13.28805 0.2245 -0.06664 29.77417 0.07681 -34.86622 -64.43253 -34.30473 0.0709 -16.5729 0.04471 
0.0 -1.82938 0.0 -0.01769 1.24252 -4.81201 -2.17102 3.34288 1.44511 0.3739 -0.66738 1.86137 0.81225 -1.9773 3.72858 -1.76255 -5.99444 -2.37286 -0.43315 4.65364 -6.86805 -1.60815 0.26746 -1.3984 14.91177 16.6486 26.40503 -0.0 -14.54753 -6.26519 16.72135 0.63896 -5.27973 3.84345 0.00545 5.37934 -21.3465 5.83598 -13.07917 0.00011 -21.01053 7.97418 -21.63743 -4.72405 5.47161 -1.12037 -28.57697 -4.70679 -0.01804 69.87206 -0.44836 20.35874 -44.63827 17.93775 0.54098 -20.80135 0.47548 8.27149 -10.00263 -1.32811 -0.05854 27.04028 0.07268 -33.04167 -66.11444 -32.03382 0.07973 -16.57289 0.05033 
0.0 -1.82938 0.0 -0.01519 1.24507 -4.77739 -1.11951 3.94318 1.22876 -0.00413 -0.71522 2.21531 0.06994 -2.08447 4.43268 -1.77524 -6.4202 -2.40803 -0.62668 4.40425 -7.36733 -1.58708 0.26068 -0.99268 15.46991 19.01335 28.26816 2e-05 -14.93636 -6.18598 16.5049 0.6634 -5.2789 3.19519 0.14075 5.82275 -21.7879 3.63634 -13.76612 -1e-05 -22.75529 7.81954 -21.59921 -4.48128 5.46289 -3.19513 -32.2376 -6.25683 -0.01799 63.55577 -0.39606 23.85115 -46.85316 21.35404 0.56566 -20.98468 0.4974 6.60734 -6.83683 -3.81808 -0.04835 23.81989 0.07228 -28.89095 -67.83528 -27.13822 0.11426 -16.57228 0.07221 
0.0 -1.82938 0.0 -0.01417 1.24509 -4.74409 -0.58239 4.65042 0.98945 -0.24391 -0.75139 2.47365 -0.3982 -2.16658 4.94662 -1.75645 -6.95951 -2.43085 -0.62037 3.80703 -7.61821 -1.39608 0.29839 -0.61063 15.94391 21.20483 30.26801 1e-05 -15.32338 -5.99296 16.91003 0.7921 -5.2743 2.67864 0.2432 6.22002 -22.22886 1.26197 -14.48831 2e-05 -24.37094 7.30929 -21.66418 -4.22652 5.45374 -3.89078 -34.19538 -6.91053 -0.01592 53.31992 -0.30283 24.06696 -48.63759 21.33038 0.56425 -20.97418 0.49614 5.99162 -3.82907 -4.80661 -0.03879 20.50739 0.11802 -27.37583 -68.60186 -25.49242 0.06503 -16.57309 0.041 
0.0 -1.82938 0.0 -0.01458 1.24252 -4.71058 -0.69773 5.19435 0.55495 -0.24719 -0.72474 2.72493 -0.39885 -2.11394 5.44938 -1.70911 -7.55434 -2.28901 -0.56752 3.08093 -7.76529 -1.32326 0.30739 -0.22029 16.60467 23.20915 31.57994 -1e-05 -15.36576 -5.93065 17.45717 0.53058 -5.28369 2.45047 0.29189 6.52961 -22.96144 -1.05335 -14.90247 2e-05 -25.60255 7.25407 -22.44789 -4.38341 5.45945 -2.78792 -33.63998 -5.66238 -0.01263 38.66383 -0.20406 20.50797 -49.44309 17.54617 0.56842 -21.00497 0.49983 6.27515 -0.4783 -5.19062 -0.02908 16.83067 0.18393 -26.58489 -68.98671 -24.66279 0.00147 -16.5739 0.00093 
0.0 -1.82938 0.0 -0.01529 1.23686 -4.67415 -1.21629 5.45723 -0.09994 -0.08086 -0.67546 2.95349 -0.05973 -2.00713 5.90869 -1.66803 -7.928 -2.01036 -0.57511 2.45623 -7.71831 -1.24502 0.3179 0.21852 17.23754 25.08256 32.73029 3e-05 -14.88695 -5.83843 18.11843 0.16538 -5.29669 2.32707 0.3236 6.85105 -23.6778 -3.07169 -14.70467 -0.00014 -26.5326 7.70114 -24.08126 -4.30642 5.45654 -0.8393 -29.77887 -2.73131 -0.00247 19.45336 -0.12739 12.42909 -49.61641 8.65724 0.58228 -21.10753 0.51214 7.24929 2.93552 -5.18715 -0.02215 13.8871 -0.01821 -29.54147 -69.10793 -25.13873 -0.12258 -17.31907 -0.10144 
0.0 -1.82938 0.0 -0.01529 1.22496 -4.6325 -1.88265 5.52886 -1.0426 0.16685 -0.66816 3.19539 0.44426 -1.97839 6.39546 -1.61325 -8.00651 -1.66121 -0.67045 2.05536 -7.53765 -1.0524 0.36261 0.60406 17.55319 26.94677 33.97077 -6e-05 -14.26499 -5.87879 18.7819 0.219 -5.29476 2.11599 0.36611 7.17718 -23.91138 -4.59463 -14.76477 -0.0 -27.26597 8.6912 -24.96082 -4.03265 5.44674 0.6949 -27.65378 -0.22211 -0.00232 6.15994 -0.02255 1.45931 -50.92833 0.13429 0.57975 -21.08894 0.5099 7.53842 3.83687 -4.94782 -0.02941 16.92566 -0.07869 -28.72109 -71.19613 -24.82107 -0.2719 -18.85863 -0.45885 
0.0 -1.82938 0.0 -0.01288 1.21337 -4.58575 -2.25998 5.6809 -2.00913 0.35192 -0.72226 3.31917 0.82189 -2.07493 6.64579 -1.57104 -7.99977 -1.27231 -0.85023 1.67906 -7.15793 -1.08004 0.34811 0.93515 17.77131 28.62776 34.79458 -1e-05 -13.25341 -6.2651 20.02403 -0.01901 -5.30332 2.01576 0.38723 7.38438 -23.94769 -5.86851 -14.36301 7e-05 -27.39551 8.79224 -25.725 -4.07281 5.44825 1.24753 -26.9884 -0.1266 6e-05 0.01588 0.0033 -2.82636 -54.67146 -3.44173 0.55879 -20.9336 0.49127 7.09204 4.27884 -5.42585 -0.03975 20.81132 -0.10372 -23.36969 -72.08379 -19.92116 -0.23062 -22.64881 -1.85588 
0.0 -1.82938 0.0 -0.00807 1.20545 -4.53492 -1.66207 6.33227 -2.24619 0.23494 -0.92803 3.09297 0.5906 -2.49465 6.19366 -1.61096 -8.25699 -0.8688 -1.06043 1.28794 -6.70295 -1.89684 0.10572 1.19431 18.48277 29.99894 34.98105 0.00015 -11.89585 -5.75111 21.42768 -0.11007 -5.3064 2.59635 0.31224 7.43874 -24.27175 -6.60515 -13.92016 -8e-05 -27.12649 8.99658 -26.40254 -4.59695 5.46703 0.16386 -27.66417 1.89459 -0.0 0.14609 -0.01587 -6.70553 -52.88727 -6.83346 0.59019 -21.16611 0.51919 5.68197 4.1066 -5.67884 -0.04922 24.27093 -0.07475 -18.43519 -69.52484 -15.30238 -1.06411 -30.171 -3.29475 
0.0 -1.82938 0.0 -0.00197 1.20025 -4.47683 -0.18504 7.22686 -1.57039 -0.23373 -1.37709 2.72437 -0.33964 -3.41722 5.44878 -1.61682 -8.40827 -0.77191 -1.14254 1.29237 -6.50811 -2.38154 -0.04099 1.32639 19.16634 30.46022 34.30029 -0.00011 -10.10217 -5.84139 22.83572 0.35222 -5.28999 3.55757 0.15926 7.0346 -24.40611 -5.71509 -13.39102 1e-05 -27.0376 10.02092 -27.13232 -4.34751 5.45804 -2.58897 -32.98132 2.65138 0.00305 10.36629 0.09843 -1.55311 -42.88131 -7.19343 0.62841 -21.44729 0.55318 3.56079 3.88178 -6.63617 -0.05528 27.06468 0.03544 -15.51357 -63.5878 -11.50303 -2.96422 -40.11877 -5.81712 
